HIERARCHY
ROOT Hips
{
    OFFSET 0.000000 0.000000 0.000000
    CHANNELS 6 Xposition Yposition Zposition Zrotation Xrotation Yrotation
    JOINT Spine
    {
        OFFSET -0.000000 7.236184 0.000000
        CHANNELS 3 Zrotation Xrotation Yrotation
        JOINT Spine1
        {
            OFFSET -0.000000 20.420147 0.000000
            CHANNELS 3 Zrotation Xrotation Yrotation
            JOINT Neck
            {
                OFFSET -0.000000 20.336288 1.848754
                CHANNELS 3 Zrotation Xrotation Yrotation
                JOINT Head
                {
                    OFFSET -0.000000 12.354461 -1.764923
                    CHANNELS 3 Zrotation Xrotation Yrotation
                    End Site
                    {
                        OFFSET -0.000000 22.061537 0.000000
                    }
                }
            }
            JOINT LeftShoulder
            {
                OFFSET 3.573296 18.396038 -0.314103
                CHANNELS 3 Zrotation Xrotation Yrotation
                JOINT LeftArm
                {
                    OFFSET 10.880760 0.000000 0.000000
                    CHANNELS 3 Zrotation Xrotation Yrotation
                    JOINT LeftForeArm
                    {
                        OFFSET 27.185530 0.000000 0.000000
                        CHANNELS 3 Zrotation Xrotation Yrotation
                        JOINT LeftHand
                        {
                            OFFSET 27.825975 0.000000 0.000000
                            CHANNELS 3 Zrotation Xrotation Yrotation
                            End Site
                            {
                                OFFSET 13.236923 0.000000 0.000000
                            }
                        }
                    }
                }
            }
            JOINT RightShoulder
            {
                OFFSET -3.474926 18.396038 -0.314103
                CHANNELS 3 Zrotation Xrotation Yrotation
                JOINT RightArm
                {
                    OFFSET -10.880760 0.000000 0.000000
                    CHANNELS 3 Zrotation Xrotation Yrotation
                    JOINT RightForeArm
                    {
                        OFFSET -27.185530 0.000000 0.000000
                        CHANNELS 3 Zrotation Xrotation Yrotation
                        JOINT RightHand
                        {
                            OFFSET -27.825975 0.000000 0.000000
                            CHANNELS 3 Zrotation Xrotation Yrotation
                            End Site
                            {
                                OFFSET -13.236923 0.000000 0.000000
                            }
                        }
                    }
                }
            }
        }
    }
    JOINT LeftUpLeg
    {
        OFFSET 8.824615 0.000000 0.000000
        CHANNELS 3 Zrotation Xrotation Yrotation
        JOINT LeftLeg
        {
            OFFSET -0.000000 -35.111282 0.000000
            CHANNELS 3 Zrotation Xrotation Yrotation
            JOINT LeftFoot
            {
                OFFSET -0.000000 -42.324711 0.000000
                CHANNELS 3 Zrotation Xrotation Yrotation
                JOINT LeftToeBase
                {
                    OFFSET -0.000000 -5.735999 13.236923
                    CHANNELS 3 Zrotation Xrotation Yrotation
                    End Site
                    {
                        OFFSET -0.000000 0.000000 3.529846
                    }
                }
            }
        }
    }
    JOINT RightUpLeg
    {
        OFFSET -8.824615 0.000000 0.000000
        CHANNELS 3 Zrotation Xrotation Yrotation
        JOINT RightLeg
        {
            OFFSET -0.000000 -35.111282 0.000000
            CHANNELS 3 Zrotation Xrotation Yrotation
            JOINT RightFoot
            {
                OFFSET -0.000000 -42.324711 0.000000
                CHANNELS 3 Zrotation Xrotation Yrotation
                JOINT RightToeBase
                {
                    OFFSET -0.000000 -5.735999 13.236923
                    CHANNELS 3 Zrotation Xrotation Yrotation
                    End Site
                    {
                        OFFSET -0.000000 0.000000 3.529846
                    }
                }
            }
        }
    }
}
MOTION
Frames:    5
Frame Time:    0.008333
-1.986717    81.995598    106.552101    0.002859    -15.604706    -175.047791    -2.851580    -11.986105    -0.262418    2.436913    7.424594    -0.119413    2.833134    6.920247    -2.471468    4.316730    0.200542    -2.208623    0.018426    16.130022    -0.944465    -49.101093    39.837803    -39.171974    2.741812    -7.586237    -15.619747    18.763571    -6.817933    2.410255    6.921831    18.229136    -5.940292    42.430401    40.331295    33.790157    -4.877209    -8.110838    21.650450    -14.375267    -6.853511    -2.655754    0.134138    -29.095270    -5.788167    0.052841    29.013208    5.627188    -5.830072    -12.730487    -14.142731    0.907475    -0.056748    -1.006004    -2.167696    -23.304708    4.790770    3.851467    23.336876    4.912023    -2.485934    -11.924721    -19.945288    -0.111158    -0.837431    0.120366    
-2.000056    81.987312    106.504570    -0.026046    -15.606173    -175.048584    -2.863159    -11.988737    -0.266449    2.425502    7.405000    -0.122857    2.827745    6.888991    -2.468756    4.281964    0.185708    -2.210485    0.014312    16.150040    -0.922878    -49.213417    39.787949    -39.009552    2.728450    -7.520549    -15.592814    18.720181    -6.751818    2.432969    6.937986    18.225531    -5.984321    42.462200    40.328392    33.712276    -4.906131    -8.077050    21.732481    -14.492594    -6.804425    -2.682051    0.109525    -29.062042    -5.825563    0.002665    29.015265    5.693841    -5.854807    -12.728270    -14.151576    0.868335    -0.084392    -0.962662    -2.205254    -23.332775    4.787884    3.864320    23.452591    4.894637    -2.424354    -11.975273    -19.932928    -0.115801    -0.884038    0.125402    
-2.013259    81.978897    106.457535    -0.054934    -15.607904    -175.049988    -2.874550    -11.990980    -0.272295    2.413468    7.385384    -0.124523    2.823178    6.858252    -2.465734    4.246817    0.170154    -2.212150    0.010691    16.170382    -0.901174    -49.324890    39.736954    -38.848316    2.715071    -7.455359    -15.565528    18.677383    -6.686322    2.455021    6.954723    18.221962    -6.028200    42.493641    40.324883    33.634281    -4.935045    -8.044337    21.815372    -14.607274    -6.756496    -2.707241    0.085833    -29.029869    -5.861973    -0.048519    29.018023    5.761700    -5.878085    -12.726388    -14.160669    0.830651    -0.112308    -0.920931    -2.243203    -23.363056    4.784722    3.878160    23.570784    4.875929    -2.364045    -12.024711    -19.918953    -0.120862    -0.930568    0.130891    
-2.026229    81.970123    106.411407    -0.083953    -15.610383    -175.052673    -2.886373    -11.992803    -0.277089    2.402409    7.365914    -0.127511    2.818762    6.827497    -2.462262    4.211282    0.154073    -2.213347    0.007030    16.190598    -0.879520    -49.435703    39.683632    -38.687897    2.700968    -7.390666    -15.537893    18.635859    -6.621644    2.475585    6.971407    18.218113    -6.072092    42.525089    40.320038    33.555943    -4.963905    -8.013303    21.900019    -14.716942    -6.710414    -2.730730    0.063878    -29.000082    -5.896597    -0.101987    29.022446    5.831832    -5.898691    -12.725291    -14.169890    0.795347    -0.140123    -0.881835    -2.282272    -23.398197    4.781227    3.894299    23.694328    4.854556    -2.306000    -12.072107    -19.902071    -0.126665    -0.976964    0.137184    
-2.038822    81.960854    106.366646    -0.113049    -15.613884    -175.057327    -2.898749    -11.993793    -0.282468    2.392549    7.346492    -0.130265    2.814867    6.796802    -2.457966    4.174709    0.137149    -2.213918    0.003161    16.210913    -0.857615    -49.545158    39.627602    -38.529266    2.686277    -7.327071    -15.509826    18.595695    -6.558498    2.494007    6.987844    18.214291    -6.116138    42.556370    40.313347    33.477875    -4.992633    -7.984563    21.986803    -14.819695    -6.666993    -2.751579    0.044750    -28.973751    -5.927990    -0.158715    29.029366    5.905313    -5.915711    -12.725203    -14.179856    0.763382    -0.168134    -0.846437    -2.322683    -23.440329    4.776953    3.913350    23.825481    4.828909    -2.250369    -12.116292    -19.879858    -0.133339    -1.023632    0.144422    
